<mxfile host="app.diagrams.net" modified="2021-02-08T15:53:45.067Z" agent="5.0 (X11)" etag="v1Ld7c2pBLFM7YHB1VP-" version="14.3.0" type="github" pages="2">
  <diagram id="3egdJl20xEzExwP_9GCn" name="KVS">
    <mxGraphModel dx="1422" dy="695" grid="1" gridSize="10" guides="1" tooltips="1" connect="1" arrows="1" fold="1" page="1" pageScale="1" pageWidth="850" pageHeight="1100" math="0" shadow="0">
      <root>
        <mxCell id="0" />
        <mxCell id="1" parent="0" />
        <mxCell id="FIZt_8nLxlH7YhZO16tD-15" value="&lt;div&gt;&lt;b&gt;&lt;br&gt;&lt;/b&gt;&lt;/div&gt;&lt;div&gt;&lt;b&gt;&lt;br&gt;&lt;/b&gt;&lt;/div&gt;&lt;div&gt;&lt;b&gt;&lt;br&gt;&lt;/b&gt;&lt;/div&gt;&lt;div&gt;&lt;b&gt;&lt;br&gt;&lt;/b&gt;&lt;/div&gt;&lt;div&gt;&lt;b&gt;&lt;br&gt;&lt;/b&gt;&lt;/div&gt;&lt;div&gt;&lt;b&gt;&lt;br&gt;&lt;/b&gt;&lt;/div&gt;&lt;div&gt;&lt;b&gt;&lt;br&gt;&lt;/b&gt;&lt;/div&gt;&lt;div&gt;&lt;b&gt;&lt;br&gt;&lt;/b&gt;&lt;/div&gt;&lt;div&gt;&lt;b&gt;&lt;br&gt;&lt;/b&gt;&lt;/div&gt;&lt;div&gt;&lt;b&gt;&lt;br&gt;&lt;/b&gt;&lt;/div&gt;&lt;div&gt;&lt;b&gt;&lt;br&gt;&lt;/b&gt;&lt;/div&gt;&lt;div&gt;&lt;b&gt;CONSUMERS&lt;/b&gt;&lt;/div&gt;" style="rounded=1;whiteSpace=wrap;html=1;dashed=1;" vertex="1" parent="1">
          <mxGeometry x="470" y="35" width="320" height="210" as="geometry" />
        </mxCell>
        <mxCell id="FIZt_8nLxlH7YhZO16tD-14" value="&lt;div&gt;&lt;b&gt;&lt;br&gt;&lt;/b&gt;&lt;/div&gt;&lt;div&gt;&lt;b&gt;&lt;br&gt;&lt;/b&gt;&lt;/div&gt;&lt;div&gt;&lt;b&gt;&lt;br&gt;&lt;/b&gt;&lt;/div&gt;&lt;div&gt;&lt;b&gt;&lt;br&gt;&lt;/b&gt;&lt;/div&gt;&lt;div&gt;&lt;b&gt;&lt;br&gt;&lt;/b&gt;&lt;/div&gt;&lt;div&gt;&lt;b&gt;&lt;br&gt;&lt;/b&gt;&lt;/div&gt;&lt;div&gt;&lt;b&gt;&lt;br&gt;&lt;/b&gt;&lt;/div&gt;&lt;div&gt;&lt;b&gt;&lt;br&gt;&lt;/b&gt;&lt;/div&gt;&lt;div&gt;&lt;b&gt;&lt;br&gt;&lt;/b&gt;&lt;/div&gt;&lt;div&gt;&lt;b&gt;&lt;br&gt;&lt;/b&gt;&lt;/div&gt;&lt;div&gt;&lt;b&gt;&lt;br&gt;&lt;/b&gt;&lt;/div&gt;&lt;div&gt;&lt;b&gt;PRODUCERS&lt;/b&gt;&lt;/div&gt;" style="rounded=1;whiteSpace=wrap;html=1;dashed=1;" vertex="1" parent="1">
          <mxGeometry x="90" y="35" width="230" height="210" as="geometry" />
        </mxCell>
        <mxCell id="FIZt_8nLxlH7YhZO16tD-12" value="&lt;br&gt;&lt;div&gt;&lt;b&gt;&lt;br&gt;&lt;/b&gt;&lt;/div&gt;&lt;div&gt;&lt;b&gt;&lt;br&gt;&lt;/b&gt;&lt;/div&gt;&lt;div&gt;&lt;b&gt;&lt;br&gt;&lt;/b&gt;&lt;/div&gt;&lt;div&gt;&lt;b&gt;&lt;br&gt;&lt;/b&gt;&lt;/div&gt;&lt;div&gt;&lt;b&gt;&lt;br&gt;&lt;/b&gt;&lt;/div&gt;&lt;div&gt;&lt;b&gt;&lt;br&gt;&lt;/b&gt;&lt;/div&gt;&lt;div&gt;&lt;b&gt;&lt;br&gt;&lt;/b&gt;&lt;/div&gt;&lt;div&gt;&lt;b&gt;&lt;br&gt;&lt;/b&gt;&lt;/div&gt;&lt;div&gt;&lt;b&gt;PROCESSING&lt;br&gt;&lt;/b&gt;&lt;/div&gt;" style="rounded=1;whiteSpace=wrap;html=1;dashed=1;" vertex="1" parent="1">
          <mxGeometry x="250" y="280" width="300" height="190" as="geometry" />
        </mxCell>
        <mxCell id="FIZt_8nLxlH7YhZO16tD-1" value="Amazon Kinesis Video Streams" style="outlineConnect=0;fontColor=#232F3E;gradientColor=none;strokeColor=#ffffff;fillColor=#232F3E;dashed=0;verticalLabelPosition=middle;verticalAlign=bottom;align=center;html=1;whiteSpace=wrap;fontSize=10;fontStyle=1;spacing=3;shape=mxgraph.aws4.productIcon;prIcon=mxgraph.aws4.kinesis_video_streams;" vertex="1" parent="1">
          <mxGeometry x="360" y="80" width="80" height="120" as="geometry" />
        </mxCell>
        <mxCell id="FIZt_8nLxlH7YhZO16tD-3" value="" style="edgeStyle=orthogonalEdgeStyle;rounded=0;orthogonalLoop=1;jettySize=auto;html=1;" edge="1" parent="1" source="FIZt_8nLxlH7YhZO16tD-2" target="FIZt_8nLxlH7YhZO16tD-1">
          <mxGeometry relative="1" as="geometry" />
        </mxCell>
        <mxCell id="FIZt_8nLxlH7YhZO16tD-2" value="&lt;div&gt;&lt;b&gt;PutMedia API&lt;/b&gt;&lt;/div&gt;" style="rounded=1;whiteSpace=wrap;html=1;" vertex="1" parent="1">
          <mxGeometry x="130" y="60" width="120" height="60" as="geometry" />
        </mxCell>
        <mxCell id="FIZt_8nLxlH7YhZO16tD-5" value="" style="edgeStyle=orthogonalEdgeStyle;rounded=0;orthogonalLoop=1;jettySize=auto;html=1;" edge="1" parent="1" source="FIZt_8nLxlH7YhZO16tD-4" target="FIZt_8nLxlH7YhZO16tD-1">
          <mxGeometry relative="1" as="geometry" />
        </mxCell>
        <mxCell id="FIZt_8nLxlH7YhZO16tD-4" value="&lt;div&gt;&lt;b&gt;Video Streams Producer SDK&lt;br&gt;&lt;/b&gt;&lt;/div&gt;" style="rounded=1;whiteSpace=wrap;html=1;" vertex="1" parent="1">
          <mxGeometry x="130" y="140" width="120" height="60" as="geometry" />
        </mxCell>
        <mxCell id="FIZt_8nLxlH7YhZO16tD-9" value="" style="edgeStyle=orthogonalEdgeStyle;rounded=0;orthogonalLoop=1;jettySize=auto;html=1;" edge="1" parent="1" source="FIZt_8nLxlH7YhZO16tD-1" target="FIZt_8nLxlH7YhZO16tD-6">
          <mxGeometry relative="1" as="geometry" />
        </mxCell>
        <mxCell id="FIZt_8nLxlH7YhZO16tD-16" value="" style="edgeStyle=orthogonalEdgeStyle;rounded=0;orthogonalLoop=1;jettySize=auto;html=1;" edge="1" parent="1" source="FIZt_8nLxlH7YhZO16tD-6" target="FIZt_8nLxlH7YhZO16tD-8">
          <mxGeometry relative="1" as="geometry" />
        </mxCell>
        <mxCell id="FIZt_8nLxlH7YhZO16tD-6" value="&lt;div&gt;&lt;b&gt;GetMedia API&lt;br&gt;&lt;/b&gt;&lt;/div&gt;" style="rounded=1;whiteSpace=wrap;html=1;" vertex="1" parent="1">
          <mxGeometry x="500" y="110" width="120" height="60" as="geometry" />
        </mxCell>
        <mxCell id="FIZt_8nLxlH7YhZO16tD-8" value="&lt;div&gt;&lt;b&gt;Video Streams Parser Library&lt;br&gt;&lt;/b&gt;&lt;/div&gt;" style="rounded=1;whiteSpace=wrap;html=1;" vertex="1" parent="1">
          <mxGeometry x="650" y="110" width="120" height="60" as="geometry" />
        </mxCell>
        <mxCell id="FIZt_8nLxlH7YhZO16tD-11" value="" style="edgeStyle=orthogonalEdgeStyle;rounded=0;orthogonalLoop=1;jettySize=auto;html=1;" edge="1" parent="1" source="FIZt_8nLxlH7YhZO16tD-10" target="FIZt_8nLxlH7YhZO16tD-1">
          <mxGeometry relative="1" as="geometry" />
        </mxCell>
        <mxCell id="FIZt_8nLxlH7YhZO16tD-10" value="Amazon Rekognition" style="outlineConnect=0;fontColor=#232F3E;gradientColor=none;strokeColor=#ffffff;fillColor=#232F3E;dashed=0;verticalLabelPosition=middle;verticalAlign=bottom;align=center;html=1;whiteSpace=wrap;fontSize=10;fontStyle=1;spacing=3;shape=mxgraph.aws4.productIcon;prIcon=mxgraph.aws4.rekognition;" vertex="1" parent="1">
          <mxGeometry x="300" y="310" width="80" height="110" as="geometry" />
        </mxCell>
        <mxCell id="FIZt_8nLxlH7YhZO16tD-18" value="" style="edgeStyle=orthogonalEdgeStyle;rounded=0;orthogonalLoop=1;jettySize=auto;html=1;" edge="1" parent="1" source="FIZt_8nLxlH7YhZO16tD-17" target="FIZt_8nLxlH7YhZO16tD-1">
          <mxGeometry relative="1" as="geometry" />
        </mxCell>
        <mxCell id="FIZt_8nLxlH7YhZO16tD-17" value="Amazon SageMaker" style="outlineConnect=0;fontColor=#232F3E;gradientColor=none;strokeColor=#ffffff;fillColor=#232F3E;dashed=0;verticalLabelPosition=middle;verticalAlign=bottom;align=center;html=1;whiteSpace=wrap;fontSize=10;fontStyle=1;spacing=3;shape=mxgraph.aws4.productIcon;prIcon=mxgraph.aws4.sagemaker;" vertex="1" parent="1">
          <mxGeometry x="425" y="310" width="80" height="110" as="geometry" />
        </mxCell>
        <UserObject label="https://aws.amazon.com/kinesis/video-streams/faqs/" link="https://aws.amazon.com/kinesis/video-streams/faqs/" id="kLUiKmEn_dqfuL1wlNL4-1">
          <mxCell style="text;whiteSpace=wrap;html=1;" vertex="1" parent="1">
            <mxGeometry x="250" y="490" width="300" height="30" as="geometry" />
          </mxCell>
        </UserObject>
      </root>
    </mxGraphModel>
  </diagram>
  <diagram id="3G72a1oRtJAwlCcYncec" name="KDS">
    <mxGraphModel dx="1422" dy="695" grid="1" gridSize="10" guides="1" tooltips="1" connect="1" arrows="1" fold="1" page="1" pageScale="1" pageWidth="850" pageHeight="1100" math="0" shadow="0">
      <root>
        <mxCell id="ubfk08OJs4WmA_bFlGEE-0" />
        <mxCell id="ubfk08OJs4WmA_bFlGEE-1" parent="ubfk08OJs4WmA_bFlGEE-0" />
        <mxCell id="E07bmeSrQ7LFwmQAp_uC-1" value="&lt;div&gt;&lt;b&gt;&lt;br&gt;&lt;/b&gt;&lt;/div&gt;&lt;div&gt;&lt;b&gt;&lt;br&gt;&lt;/b&gt;&lt;/div&gt;&lt;div&gt;&lt;b&gt;&lt;br&gt;&lt;/b&gt;&lt;/div&gt;&lt;div&gt;&lt;b&gt;&lt;br&gt;&lt;/b&gt;&lt;/div&gt;&lt;div&gt;&lt;b&gt;&lt;br&gt;&lt;/b&gt;&lt;/div&gt;&lt;div&gt;&lt;b&gt;&lt;br&gt;&lt;/b&gt;&lt;/div&gt;&lt;div&gt;&lt;b&gt;&lt;br&gt;&lt;/b&gt;&lt;/div&gt;&lt;div&gt;&lt;b&gt;&lt;br&gt;&lt;/b&gt;&lt;/div&gt;&lt;div&gt;&lt;b&gt;&lt;br&gt;&lt;/b&gt;&lt;/div&gt;&lt;div&gt;&lt;b&gt;&lt;br&gt;&lt;/b&gt;&lt;/div&gt;&lt;div&gt;&lt;b&gt;&lt;br&gt;&lt;/b&gt;&lt;/div&gt;&lt;div&gt;&lt;b&gt;&lt;br&gt;&lt;/b&gt;&lt;/div&gt;&lt;div&gt;&lt;b&gt;&lt;br&gt;&lt;/b&gt;&lt;/div&gt;&lt;div&gt;&lt;b&gt;&lt;br&gt;&lt;/b&gt;&lt;/div&gt;&lt;div&gt;&lt;b&gt;&lt;br&gt;&lt;/b&gt;&lt;/div&gt;&lt;div&gt;&lt;b&gt;&lt;br&gt;&lt;/b&gt;&lt;/div&gt;&lt;div&gt;&lt;b&gt;&lt;br&gt;&lt;/b&gt;&lt;/div&gt;&lt;div&gt;&lt;b&gt;&lt;br&gt;&lt;/b&gt;&lt;/div&gt;&lt;div&gt;&lt;b&gt;&lt;br&gt;&lt;/b&gt;&lt;/div&gt;&lt;div&gt;&lt;b&gt;&lt;br&gt;&lt;/b&gt;&lt;/div&gt;&lt;div&gt;&lt;b&gt;&lt;br&gt;&lt;/b&gt;&lt;/div&gt;&lt;div&gt;&lt;b&gt;&lt;br&gt;&lt;/b&gt;&lt;/div&gt;&lt;div&gt;&lt;b&gt;&lt;br&gt;&lt;/b&gt;&lt;/div&gt;&lt;div&gt;&lt;b&gt;&lt;br&gt;&lt;/b&gt;&lt;/div&gt;&lt;div&gt;&lt;b&gt;&lt;br&gt;&lt;/b&gt;&lt;/div&gt;&lt;div&gt;&lt;b&gt;&lt;br&gt;&lt;/b&gt;&lt;/div&gt;&lt;div&gt;&lt;b&gt;&lt;br&gt;&lt;/b&gt;&lt;/div&gt;&lt;div&gt;&lt;b&gt;&lt;br&gt;&lt;/b&gt;&lt;/div&gt;&lt;div&gt;&lt;b&gt;&lt;br&gt;&lt;/b&gt;&lt;/div&gt;&lt;div&gt;&lt;b&gt;&lt;br&gt;&lt;/b&gt;&lt;/div&gt;&lt;div&gt;&lt;b&gt;&lt;br&gt;&lt;/b&gt;&lt;/div&gt;&lt;div&gt;&lt;b&gt;&lt;br&gt;&lt;/b&gt;&lt;/div&gt;&lt;div&gt;&lt;b&gt;PRODUCERS&lt;/b&gt;&lt;/div&gt;" style="rounded=1;whiteSpace=wrap;html=1;dashed=1;" vertex="1" parent="ubfk08OJs4WmA_bFlGEE-1">
          <mxGeometry x="60" y="30" width="230" height="500" as="geometry" />
        </mxCell>
        <mxCell id="E07bmeSrQ7LFwmQAp_uC-7" value="&lt;div align=&quot;left&quot;&gt;&lt;b&gt;APP&lt;/b&gt;&lt;/div&gt;&lt;div&gt;&amp;nbsp;&lt;/div&gt;&lt;div&gt;&lt;br&gt;&lt;/div&gt;&lt;div&gt;&lt;br&gt;&lt;/div&gt;&lt;div&gt;&lt;br&gt;&lt;/div&gt;&lt;div&gt;&lt;br&gt;&lt;/div&gt;&lt;div&gt;(e.g. deployed on ECS, EC2 etc.)&lt;/div&gt;" style="rounded=1;whiteSpace=wrap;html=1;align=left;" vertex="1" parent="ubfk08OJs4WmA_bFlGEE-1">
          <mxGeometry x="80" y="67.5" width="180" height="135" as="geometry" />
        </mxCell>
        <mxCell id="E07bmeSrQ7LFwmQAp_uC-5" value="&lt;div&gt;Kinesis Producer Library (KPL)&lt;br&gt;&lt;/div&gt;" style="rounded=1;whiteSpace=wrap;html=1;" vertex="1" parent="ubfk08OJs4WmA_bFlGEE-1">
          <mxGeometry x="130" y="90" width="120" height="60" as="geometry" />
        </mxCell>
        <mxCell id="E07bmeSrQ7LFwmQAp_uC-8" value="" style="edgeStyle=orthogonalEdgeStyle;rounded=0;orthogonalLoop=1;jettySize=auto;html=1;entryX=0;entryY=0.5;entryDx=0;entryDy=0;" edge="1" source="E07bmeSrQ7LFwmQAp_uC-17" target="E07bmeSrQ7LFwmQAp_uC-19" parent="ubfk08OJs4WmA_bFlGEE-1">
          <mxGeometry relative="1" as="geometry">
            <mxPoint x="430" y="135" as="sourcePoint" />
            <mxPoint x="490" y="135" as="targetPoint" />
          </mxGeometry>
        </mxCell>
        <mxCell id="E07bmeSrQ7LFwmQAp_uC-6" value="" style="edgeStyle=orthogonalEdgeStyle;rounded=0;orthogonalLoop=1;jettySize=auto;html=1;exitX=1;exitY=0.5;exitDx=0;exitDy=0;" edge="1" source="E07bmeSrQ7LFwmQAp_uC-1" target="E07bmeSrQ7LFwmQAp_uC-17" parent="ubfk08OJs4WmA_bFlGEE-1">
          <mxGeometry relative="1" as="geometry">
            <mxPoint x="350" y="135" as="targetPoint" />
          </mxGeometry>
        </mxCell>
        <mxCell id="E07bmeSrQ7LFwmQAp_uC-17" value="Amazon Kinesis Data Streams" style="outlineConnect=0;fontColor=#232F3E;gradientColor=none;strokeColor=#ffffff;fillColor=#232F3E;dashed=0;verticalLabelPosition=middle;verticalAlign=bottom;align=center;html=1;whiteSpace=wrap;fontSize=10;fontStyle=1;spacing=3;shape=mxgraph.aws4.productIcon;prIcon=mxgraph.aws4.kinesis_data_streams;" vertex="1" parent="ubfk08OJs4WmA_bFlGEE-1">
          <mxGeometry x="340" y="220" width="80" height="120" as="geometry" />
        </mxCell>
        <mxCell id="E07bmeSrQ7LFwmQAp_uC-19" value="&lt;div&gt;&lt;b&gt;&lt;br&gt;&lt;/b&gt;&lt;/div&gt;&lt;div&gt;&lt;b&gt;&lt;br&gt;&lt;/b&gt;&lt;/div&gt;&lt;div&gt;&lt;b&gt;&lt;br&gt;&lt;/b&gt;&lt;/div&gt;&lt;div&gt;&lt;b&gt;&lt;br&gt;&lt;/b&gt;&lt;/div&gt;&lt;div&gt;&lt;b&gt;&lt;br&gt;&lt;/b&gt;&lt;/div&gt;&lt;div&gt;&lt;b&gt;&lt;br&gt;&lt;/b&gt;&lt;/div&gt;&lt;div&gt;&lt;b&gt;&lt;br&gt;&lt;/b&gt;&lt;/div&gt;&lt;div&gt;&lt;b&gt;&lt;br&gt;&lt;/b&gt;&lt;/div&gt;&lt;div&gt;&lt;b&gt;&lt;br&gt;&lt;/b&gt;&lt;/div&gt;&lt;div&gt;&lt;b&gt;&lt;br&gt;&lt;/b&gt;&lt;/div&gt;&lt;div&gt;&lt;b&gt;&lt;br&gt;&lt;/b&gt;&lt;/div&gt;&lt;div&gt;&lt;b&gt;&lt;br&gt;&lt;/b&gt;&lt;/div&gt;&lt;div&gt;&lt;b&gt;&lt;br&gt;&lt;/b&gt;&lt;/div&gt;&lt;div&gt;&lt;b&gt;&lt;br&gt;&lt;/b&gt;&lt;/div&gt;&lt;div&gt;&lt;b&gt;&lt;br&gt;&lt;/b&gt;&lt;/div&gt;&lt;div&gt;&lt;b&gt;&lt;br&gt;&lt;/b&gt;&lt;/div&gt;&lt;div&gt;&lt;b&gt;&lt;br&gt;&lt;/b&gt;&lt;/div&gt;&lt;div&gt;&lt;b&gt;&lt;br&gt;&lt;/b&gt;&lt;/div&gt;&lt;div&gt;&lt;b&gt;&lt;br&gt;&lt;/b&gt;&lt;/div&gt;&lt;div&gt;&lt;b&gt;&lt;br&gt;&lt;/b&gt;&lt;/div&gt;&lt;div&gt;&lt;b&gt;&lt;br&gt;&lt;/b&gt;&lt;/div&gt;&lt;div&gt;&lt;b&gt;&lt;br&gt;&lt;/b&gt;&lt;/div&gt;&lt;div&gt;&lt;b&gt;&lt;br&gt;&lt;/b&gt;&lt;/div&gt;&lt;div&gt;&lt;b&gt;&lt;br&gt;&lt;/b&gt;&lt;/div&gt;&lt;div&gt;&lt;b&gt;&lt;br&gt;&lt;/b&gt;&lt;/div&gt;&lt;div&gt;&lt;b&gt;&lt;br&gt;&lt;/b&gt;&lt;/div&gt;&lt;div&gt;&lt;b&gt;&lt;br&gt;&lt;/b&gt;&lt;/div&gt;&lt;div&gt;&lt;b&gt;&lt;br&gt;&lt;/b&gt;&lt;/div&gt;&lt;div&gt;&lt;b&gt;&lt;br&gt;&lt;/b&gt;&lt;/div&gt;&lt;div&gt;&lt;b&gt;&lt;br&gt;&lt;/b&gt;&lt;/div&gt;&lt;div&gt;&lt;b&gt;&lt;br&gt;&lt;/b&gt;&lt;/div&gt;&lt;div&gt;&lt;b&gt;&lt;br&gt;&lt;/b&gt;&lt;/div&gt;&lt;div&gt;&lt;b&gt;CONSUMERS&lt;/b&gt;&lt;/div&gt;" style="rounded=1;whiteSpace=wrap;html=1;dashed=1;" vertex="1" parent="ubfk08OJs4WmA_bFlGEE-1">
          <mxGeometry x="480" y="30" width="230" height="500" as="geometry" />
        </mxCell>
        <mxCell id="E07bmeSrQ7LFwmQAp_uC-20" value="&lt;div align=&quot;right&quot;&gt;&lt;b&gt;APP&lt;/b&gt;&lt;/div&gt;&lt;div align=&quot;right&quot;&gt;&amp;nbsp;&lt;/div&gt;&lt;div align=&quot;right&quot;&gt;&lt;br&gt;&lt;/div&gt;&lt;div align=&quot;right&quot;&gt;&lt;br&gt;&lt;/div&gt;&lt;div align=&quot;right&quot;&gt;&lt;br&gt;&lt;/div&gt;&lt;div align=&quot;right&quot;&gt;&lt;br&gt;&lt;/div&gt;&lt;div align=&quot;right&quot;&gt;(e.g. deployed on ECS, EC2 etc.)&lt;/div&gt;" style="rounded=1;whiteSpace=wrap;html=1;align=right;" vertex="1" parent="ubfk08OJs4WmA_bFlGEE-1">
          <mxGeometry x="510" y="67.5" width="180" height="135" as="geometry" />
        </mxCell>
        <mxCell id="E07bmeSrQ7LFwmQAp_uC-21" value="&lt;div&gt;Kinesis Consumer Library (KCL)&lt;br&gt;&lt;/div&gt;" style="rounded=1;whiteSpace=wrap;html=1;" vertex="1" parent="ubfk08OJs4WmA_bFlGEE-1">
          <mxGeometry x="520" y="105" width="120" height="60" as="geometry" />
        </mxCell>
        <mxCell id="E07bmeSrQ7LFwmQAp_uC-22" value="Amazon Kinesis Data Firehose" style="outlineConnect=0;fontColor=#232F3E;gradientColor=none;strokeColor=#ffffff;fillColor=#232F3E;dashed=0;verticalLabelPosition=middle;verticalAlign=bottom;align=center;html=1;whiteSpace=wrap;fontSize=10;fontStyle=1;spacing=3;shape=mxgraph.aws4.productIcon;prIcon=mxgraph.aws4.kinesis_data_firehose;" vertex="1" parent="ubfk08OJs4WmA_bFlGEE-1">
          <mxGeometry x="500" y="230" width="80" height="120" as="geometry" />
        </mxCell>
        <mxCell id="E07bmeSrQ7LFwmQAp_uC-26" value="https://docs.aws.amazon.com/streams/latest/dev/building-producers.html" style="text;html=1;strokeColor=none;fillColor=none;align=center;verticalAlign=middle;whiteSpace=wrap;rounded=0;dashed=1;" vertex="1" parent="ubfk08OJs4WmA_bFlGEE-1">
          <mxGeometry x="160" y="540" width="40" height="40" as="geometry" />
        </mxCell>
        <UserObject label="https://docs.aws.amazon.com/streams/latest/dev/building-consumers.html" link="https://docs.aws.amazon.com/streams/latest/dev/building-consumers.html" id="E07bmeSrQ7LFwmQAp_uC-27">
          <mxCell style="text;whiteSpace=wrap;html=1;align=center;" vertex="1" parent="ubfk08OJs4WmA_bFlGEE-1">
            <mxGeometry x="525" y="530" width="150" height="30" as="geometry" />
          </mxCell>
        </UserObject>
        <mxCell id="E07bmeSrQ7LFwmQAp_uC-28" value="&lt;h1 class=&quot;topictitle&quot; id=&quot;developing-producers-with-sdk&quot; style=&quot;font-size: 13px&quot; align=&quot;center&quot;&gt;&lt;font style=&quot;font-size: 13px&quot;&gt;Kinesis Data Streams API&lt;/font&gt;&lt;/h1&gt;&amp;nbsp;(PutRecords called from any compute e.g. lambda, EC2 etc)" style="rounded=1;whiteSpace=wrap;html=1;align=center;" vertex="1" parent="ubfk08OJs4WmA_bFlGEE-1">
          <mxGeometry x="80" y="246.25" width="180" height="67.5" as="geometry" />
        </mxCell>
        <mxCell id="E07bmeSrQ7LFwmQAp_uC-29" value="&lt;h1 class=&quot;topictitle&quot; id=&quot;writing-with-agents&quot; style=&quot;font-size: 13px&quot;&gt;&lt;font style=&quot;font-size: 13px&quot;&gt;Kinesis Agent&lt;/font&gt;&lt;/h1&gt;&lt;font style=&quot;font-size: 13px&quot;&gt;&amp;nbsp;(Filesystem monitoring Java app)&lt;/font&gt;" style="rounded=1;whiteSpace=wrap;html=1;align=center;" vertex="1" parent="ubfk08OJs4WmA_bFlGEE-1">
          <mxGeometry x="80" y="370" width="180" height="67.5" as="geometry" />
        </mxCell>
        <mxCell id="E07bmeSrQ7LFwmQAp_uC-31" value="AWS Lambda" style="outlineConnect=0;fontColor=#232F3E;gradientColor=none;strokeColor=#ffffff;fillColor=#232F3E;dashed=0;verticalLabelPosition=middle;verticalAlign=bottom;align=center;html=1;whiteSpace=wrap;fontSize=10;fontStyle=1;spacing=3;shape=mxgraph.aws4.productIcon;prIcon=mxgraph.aws4.lambda;" vertex="1" parent="ubfk08OJs4WmA_bFlGEE-1">
          <mxGeometry x="500" y="360" width="80" height="100" as="geometry" />
        </mxCell>
        <mxCell id="E07bmeSrQ7LFwmQAp_uC-32" value="Amazon Kinesis Data Analytics" style="outlineConnect=0;fontColor=#232F3E;gradientColor=none;strokeColor=#ffffff;fillColor=#232F3E;dashed=0;verticalLabelPosition=middle;verticalAlign=bottom;align=center;html=1;whiteSpace=wrap;fontSize=10;fontStyle=1;spacing=3;shape=mxgraph.aws4.productIcon;prIcon=mxgraph.aws4.kinesis_data_analytics;" vertex="1" parent="ubfk08OJs4WmA_bFlGEE-1">
          <mxGeometry x="610" y="230" width="80" height="120" as="geometry" />
        </mxCell>
      </root>
    </mxGraphModel>
  </diagram>
</mxfile>
